<svg width="17" height="17" viewBox="0 0 17 17" fill="none" xmlns="http://www.w3.org/2000/svg">
<path d="M8.492 0.583008C4.122 0.583008 0.583252 4.12968 0.583252 8.49968C0.583252 12.8697 4.122 16.4163 8.492 16.4163C12.8699 16.4163 16.4166 12.8697 16.4166 8.49968C16.4166 4.12968 12.8699 0.583008 8.492 0.583008ZM8.49992 14.833C5.00075 14.833 2.16659 11.9988 2.16659 8.49968C2.16659 5.00051 5.00075 2.16634 8.49992 2.16634C11.9991 2.16634 14.8333 5.00051 14.8333 8.49968C14.8333 11.9988 11.9991 14.833 8.49992 14.833ZM8.89575 4.54134H7.70825V9.29134L11.8645 11.7851L12.4583 10.8113L8.89575 8.69759V4.54134Z" fill="#E2F0F1"/>
</svg>
