<svg width="24" height="24" viewBox="0 0 24 24" fill="none" xmlns="http://www.w3.org/2000/svg">
<path d="M7.10001 0.333374H16.9C20.6333 0.333374 23.6667 3.36671 23.6667 7.10004V16.9C23.6667 18.6947 22.9538 20.4158 21.6848 21.6848C20.4158 22.9538 18.6946 23.6667 16.9 23.6667H7.10001C3.36668 23.6667 0.333344 20.6334 0.333344 16.9V7.10004C0.333344 5.30541 1.04626 3.58428 2.31525 2.31529C3.58425 1.04629 5.30538 0.333374 7.10001 0.333374ZM6.86668 2.66671C5.75277 2.66671 4.68448 3.10921 3.89683 3.89686C3.10918 4.68451 2.66668 5.7528 2.66668 6.86671V17.1334C2.66668 19.455 4.54501 21.3334 6.86668 21.3334H17.1333C18.2473 21.3334 19.3155 20.8909 20.1032 20.1032C20.8908 19.3156 21.3333 18.2473 21.3333 17.1334V6.86671C21.3333 4.54504 19.455 2.66671 17.1333 2.66671H6.86668ZM18.125 4.41671C18.5118 4.41671 18.8827 4.57035 19.1562 4.84384C19.4297 5.11733 19.5833 5.48827 19.5833 5.87504C19.5833 6.26182 19.4297 6.63275 19.1562 6.90624C18.8827 7.17973 18.5118 7.33337 18.125 7.33337C17.7382 7.33337 17.3673 7.17973 17.0938 6.90624C16.8203 6.63275 16.6667 6.26182 16.6667 5.87504C16.6667 5.48827 16.8203 5.11733 17.0938 4.84384C17.3673 4.57035 17.7382 4.41671 18.125 4.41671ZM12 6.16671C13.5471 6.16671 15.0308 6.78129 16.1248 7.87525C17.2188 8.96921 17.8333 10.4529 17.8333 12C17.8333 13.5471 17.2188 15.0309 16.1248 16.1248C15.0308 17.2188 13.5471 17.8334 12 17.8334C10.4529 17.8334 8.96918 17.2188 7.87522 16.1248C6.78126 15.0309 6.16668 13.5471 6.16668 12C6.16668 10.4529 6.78126 8.96921 7.87522 7.87525C8.96918 6.78129 10.4529 6.16671 12 6.16671ZM12 8.50004C11.0718 8.50004 10.1815 8.86879 9.52514 9.52517C8.86876 10.1815 8.50001 11.0718 8.50001 12C8.50001 12.9283 8.86876 13.8185 9.52514 14.4749C10.1815 15.1313 11.0718 15.5 12 15.5C12.9283 15.5 13.8185 15.1313 14.4749 14.4749C15.1313 13.8185 15.5 12.9283 15.5 12C15.5 11.0718 15.1313 10.1815 14.4749 9.52517C13.8185 8.86879 12.9283 8.50004 12 8.50004Z" fill="white"/>
</svg>
