<svg width="16" height="12" viewBox="0 0 16 12" fill="none" xmlns="http://www.w3.org/2000/svg">
<path d="M14.3556 0.00497438C14.2912 -0.00165813 14.2263 -0.00165813 14.1619 0.00497438H0.939722C0.854979 0.00628014 0.770797 0.0189868 0.689444 0.0427521L7.51306 6.83803L14.3556 0.00497438Z" fill="#E2F0F1"/>
<path d="M15.0544 0.661363L8.17889 7.50859C8.00194 7.68449 7.76256 7.78322 7.51305 7.78322C7.26355 7.78322 7.02418 7.68449 6.84722 7.50859L0.0330556 0.713308C0.0121075 0.790299 0.00100049 0.869635 0 0.949419V10.3939C0 10.6443 0.0995037 10.8846 0.276621 11.0617C0.453739 11.2388 0.693962 11.3383 0.944444 11.3383H14.1667C14.4171 11.3383 14.6574 11.2388 14.8345 11.0617C15.0116 10.8846 15.1111 10.6443 15.1111 10.3939V0.949419C15.1074 0.851033 15.0882 0.753841 15.0544 0.661363ZM1.59139 10.3939H0.935V9.71859L4.36805 6.31386L5.03389 6.9797L1.59139 10.3939ZM14.1572 10.3939H13.4961L10.0536 6.9797L10.7194 6.31386L14.1525 9.71859L14.1572 10.3939Z" fill="#E2F0F1"/>
</svg>
