<svg width="14" height="19" viewBox="0 0 14 19" fill="none" xmlns="http://www.w3.org/2000/svg">
<path d="M7 10.5552C8.10457 10.5552 9 9.61005 9 8.44412C9 7.27818 8.10457 6.33301 7 6.33301C5.89543 6.33301 5 7.27818 5 8.44412C5 9.61005 5.89543 10.5552 7 10.5552Z" fill="#E2F0F1"/>
<path fill-rule="evenodd" clip-rule="evenodd" d="M7 0.583008C5.1255 0.583008 3.33947 1.36952 2.03141 2.75025C0.72508 4.12915 0 5.98834 0 7.91634C0 9.60296 0.356143 10.8028 1.32856 12.0836C1.33623 12.0937 1.34409 12.1036 1.35213 12.1134L6.22713 18.0509C6.41708 18.2823 6.70067 18.4163 7 18.4163C7.29933 18.4163 7.58292 18.2823 7.77287 18.0509L12.6479 12.1134C12.6559 12.1036 12.6638 12.0937 12.6714 12.0836C13.6439 10.8028 14 9.60296 14 7.91634C14 5.98834 13.2749 4.12915 11.9686 2.75025C10.6605 1.36952 8.8745 0.583008 7 0.583008ZM3.48331 4.12574C4.42568 3.13102 5.6919 2.58301 7 2.58301C8.3081 2.58301 9.57432 3.13102 10.5167 4.12574C11.4608 5.1223 12 6.48493 12 7.91634C12 9.21818 11.7559 9.97728 11.0897 10.8595L7 15.8405L2.91034 10.8595C2.24415 9.97728 2 9.21819 2 7.91634C2 6.48493 2.5392 5.1223 3.48331 4.12574Z" fill="#E2F0F1"/>
</svg>
