<svg width="68" height="68" viewBox="0 0 68 68" fill="none" xmlns="http://www.w3.org/2000/svg">
<circle cx="34" cy="34" r="34" fill="#000D30"/>
<path d="M8 35.76C8 37.608 8.552 39.168 9.68 40.44C10.808 41.688 12.224 42.312 13.904 42.312C15.2 42.312 16.352 41.928 17.36 41.136V42H20.936V24H17.36V30.36C16.328 29.592 15.176 29.208 13.904 29.208C12.224 29.208 10.808 29.832 9.68 31.08C8.552 32.328 8 33.888 8 35.76ZM14.528 32.76C15.296 32.76 15.944 33.048 16.496 33.624C17.048 34.2 17.312 34.896 17.312 35.736C17.312 37.464 16.064 38.76 14.528 38.76C12.968 38.76 11.744 37.464 11.744 35.736C11.744 34.08 12.968 32.76 14.528 32.76Z" fill="white"/>
<path d="M22.584 42H26.184V34.944C26.184 33.576 27.168 32.544 28.488 32.544C29.808 32.544 30.768 33.576 30.768 34.944V42H34.368V33.984C34.368 32.616 33.912 31.488 32.976 30.576C32.064 29.664 30.9359 29.208 29.5919 29.208C28.1519 29.208 27.024 29.736 26.184 30.792V29.52H22.584V42Z" fill="white"/>
<path d="M38.3839 38.232C37.2319 38.232 36.368 39.096 36.368 40.272C36.368 41.448 37.2319 42.312 38.3839 42.312C39.5599 42.312 40.448 41.448 40.448 40.272C40.448 39.096 39.5599 38.232 38.3839 38.232Z" fill="#B5ED3D"/>
<path d="M41.2059 35.76C41.2059 37.608 41.7579 39.168 42.8859 40.44C44.0139 41.688 45.4299 42.312 47.1099 42.312C48.4059 42.312 49.5579 41.928 50.5659 41.136V42H54.1419V29.52H50.5659V30.36C49.5339 29.592 48.3819 29.208 47.1099 29.208C45.4299 29.208 44.0139 29.832 42.8859 31.08C41.7579 32.328 41.2059 33.888 41.2059 35.76ZM47.7339 32.76C48.5019 32.76 49.1499 33.048 49.7019 33.624C50.2539 34.2 50.5179 34.896 50.5179 35.736C50.5179 37.464 49.2699 38.76 47.7339 38.76C46.1739 38.76 44.9499 37.464 44.9499 35.736C44.9499 34.08 46.1739 32.76 47.7339 32.76Z" fill="#B5ED3D"/>
<path d="M59.568 42V29.52H55.968V42H59.568ZM56.16 28.008C56.592 28.416 57.12 28.632 57.768 28.632C58.416 28.632 58.944 28.416 59.352 28.008C59.784 27.6 60 27.072 60 26.424C60 25.776 59.784 25.248 59.352 24.84C58.944 24.432 58.416 24.216 57.768 24.216C57.12 24.216 56.592 24.432 56.16 24.84C55.752 25.248 55.536 25.776 55.536 26.424C55.536 27.072 55.752 27.6 56.16 28.008Z" fill="#B5ED3D"/>
</svg>
